Life of Pi 2012 DVDSCR Xvid Ac3-ADTRG


IMDB: http://www.imdb.com/title/tt0454876/


General
Complete name                            : Life of Pi 2012 DVDSCR Xvid Ac3-ADTRG.avi
Source                                   : DVDSCR [Thanks]
Format                                   : AVI
Format/Info                              : Audio Video Interleave
File size                                : 1.85 GiB
Duration                                 : 2h 6mn
Overall bit rate                         : 2 090 Kbps
Writing library                          : VirtualDubMod build 2540/release

Video
ID                                       : 0
Format                                   : MPEG-4 Visual
Format profile                           : Advanced Simple@L5
Format settings, BVOP                    : 2
Format settings, QPel                    : No
Format settings, GMC                     : No warppoints
Format settings, Matrix                  : Default (H.263)
Muxing mode                              : Packed bitstream
Codec ID                                 : XVID
Codec ID/Hint                            : XviD
Duration                                 : 2h 6mn
Bit rate                                 : 1 696 Kbps
Width                                    : 720 pixels
Height                                   : 384 pixels
Display aspect ratio                     : 1.875
Frame rate                               : 23.976 fps
Color space                              : YUV
Chroma subsampling                       : 4:2:0
Bit depth                                : 8 bits
Scan type                                : Progressive
Compression mode                         : Lossy
Bits/(Pixel*Frame)                       : 0.256
Stream size                              : 1.50 GiB (81%)
Writing library                          : XviD 64

Audio
ID                                       : 1
Format                                   : AC-3
Format/Info                              : Audio Coding 3
Mode extension                           : CM (complete main)
Codec ID                                 : 2000
Duration                                 : 2h 6mn
Bit rate mode                            : Constant
Bit rate                                 : 384 Kbps
Channel(s)                               : 2 channels
Channel positions                        : Front: L R
Sampling rate                            : 48.0 KHz
Bit depth                                : 16 bits
Compression mode                         : Lossy
Stream size                              : 349 MiB (18%)
Alignment                                : Split accross interleaves
Interleave, duration                     : 42 ms (1.00 video frame)
Interleave, preload duration             : 500 ms


Notes :

added some filters and altered a/r to what i think looks right 

enjoy until better arrives 


Poster:

 
http://i.imgur.com/cGajpku.jpg


Screenshots:

 
http://i.imgur.com/aeUaVWR.jpg


SEED AND ENJOY!